# xmcd
#
# Track frame offsets:
#	150
#	14821
#	36978
#	57811
#	78651
#	95798
#	114520
#	134311
#	150880
#	165919
#	181076
#
# Disc length: 2650 seconds
#
# Revision: 1
# Processed by: cddbd v1.5.2PL0 Copyright (c) Steve Scherf et al.
# Submitted via: audiograbber 1.83.01
#
DISCID=840a580b
DTITLE=Sarah Geronimo - Taking Flight [2007]
DYEAR=2007
DGENRE=OPM pop
TTITLE0=I'll be allright
TTITLE1=Ikaw
TTITLE2=I'm sorry
TTITLE3=Time to let go (feat. Mark Bautista)
TTITLE4=So
TTITLE5=Close to my heart
TTITLE6=What if I?
TTITLE7=Miss
TTITLE8=I'll be there
TTITLE9=Mr. Deadma
TTITLE10=Kahit na
EXTD=
EXTT0=
EXTT1=
EXTT2=
EXTT3=
EXTT4=
EXTT5=
EXTT6=
EXTT7=
EXTT8=
EXTT9=
EXTT10=
PLAYORDER=
